<svg width="668" height="229" viewBox="0 0 668 229" fill="none" xmlns="http://www.w3.org/2000/svg">
<path d="M551.962 35.3468L616.324 12.0514L638.613 3.17602L638.613 63.0177L604.261 64.146L573.167 70.2971L558.81 76.2441L549.21 93.677L535.55 109.428L518.321 116.564L505.153 125.383L491.985 134.201L481.688 141.83L474.263 148.27L468.521 150.649L461.588 150.156L458.02 141.542L461.384 133.42L470.491 122.919L479.598 112.419L488.213 108.851L499.002 94.2892L500.684 90.2283L551.962 35.3468Z" fill="#E7CEC1"/>
<path d="M428.201 110.16L432.754 104.909L451.172 100.644L460.976 99.9476L455.93 112.13L445.634 119.759L446.33 129.563L444.156 140.556L448.42 158.974L443.867 164.225L436.935 163.732L428.609 143.632L427.215 124.024L428.201 110.16Z" fill="#E1C9BB"/>
<path d="M447.808 108.766L460.976 99.9477L479.394 95.6828L467.415 107.373L454.248 116.191L456.626 121.934L453.262 130.056L451.58 134.117L456.338 145.603L454.163 156.596L447.231 156.103L442.966 137.685L445.633 119.759L447.808 108.766Z" fill="#D9C3B6"/>
<path d="M454.248 116.191L461.673 109.751L464.544 108.562L474.841 100.933L462.369 119.555L458.513 134.609L451.58 134.117L456.626 121.934L454.248 116.191Z" fill="#D2BDB1"/>
<path d="M485.919 62.7038L551.963 35.3476L500.684 90.2291L499.002 94.29L492.767 103.601L481.773 101.426L465.037 101.63L439.687 105.403L411.465 110.364L394.236 117.501L386.114 114.137L383.735 108.394L392.35 104.826L418.193 94.1209L444.036 83.4163L459.583 80.3408L472.751 71.5223L485.919 62.7038Z" fill="#E6CEC0"/>
<path d="M351.543 140.899L346.035 145.136L327.136 145.644L317.39 144.372L324.764 133.44L336.374 128.017L337.646 118.271L341.969 107.932L341.462 89.0332L346.971 84.7961L353.666 86.661L357.817 108.018L355.273 127.509L351.543 140.899Z" fill="#727272"/>
<path d="M332.052 138.356L317.39 144.372L298.491 144.879L312.56 135.812L327.222 129.796L326.036 123.694L330.952 116.406L333.409 112.762L331.037 100.558L335.36 90.2194L342.055 92.0843L342.562 110.983L336.375 128.017L332.052 138.356Z" fill="#929292"/>
<path d="M327.222 129.796L318.662 134.626L315.611 135.219L304 140.642L319.934 124.88L326.714 110.897L333.409 112.762L326.036 123.694L327.222 129.796Z" fill="#858585"/>
<path d="M285.523 175.896L215.351 189.536L276.542 145.98L279 142.336L286.966 134.455L297.305 138.777L313.746 141.914L339.34 143.272L367.985 144.036L386.29 140.478L393.578 145.394L394.764 151.496L385.612 153.275L358.153 158.612L330.694 163.95L314.847 163.864L300.185 169.88L285.523 175.896Z" fill="#999999"/>
<path d="M215.351 189.536L147.637 199.532L76.2794 207.07L27.4642 216.559L15.1459 217.493L15.1459 138.168L33.4017 133.083L111.369 143.258L169.844 150.888L201.54 151.06L216.795 148.095L229.677 132.926L246.204 120.215L264.51 116.656L279.171 110.64L293.833 104.624L305.444 99.2007L314.004 94.3707L320.105 93.1846L326.8 95.0494L328.58 104.202L323.664 111.49L312.646 119.964L301.628 128.438L292.475 130.218L279 142.336L276.542 145.98L243.378 177.135L215.351 189.536Z" fill="#606060"/>
<g filter="url(#filter0_d_206_20)">
<circle cx="315.745" cy="152.085" r="5.56667" fill="#E0FFFB"/>
</g>
<g filter="url(#filter1_d_206_20)">
<circle cx="344.97" cy="153.476" r="4.175" fill="#E0FFFB"/>
</g>
<g filter="url(#filter2_d_206_20)">
<circle cx="347.753" cy="136.776" r="4.175" fill="#E0FFFB"/>
</g>
<g filter="url(#filter3_d_206_20)">
<circle cx="351.928" cy="107.551" r="2.78333" fill="#E0FFFB"/>
</g>
<g filter="url(#filter4_d_206_20)">
<circle cx="368.628" cy="149.301" r="2.78333" fill="#E0FFFB"/>
</g>
<path d="M127.87 181.31L164.053 175.743L193.278 185.485L191.887 196.618L155.703 202.185L127.87 203.576L101.428 206.36L66.6367 210.535L55.5034 200.793V185.485L81.9451 177.135L127.87 181.31Z" fill="#DCFFFD"/>
<path d="M48.5451 133.993L118.128 142.343L175.187 149.301L191.887 157.651L196.062 168.785L193.278 182.701L165.445 172.96L127.87 178.526L81.9451 174.351L54.1117 182.701L34.6284 163.218L48.5451 133.993Z" fill="#DCFFFD"/>
<path d="M183.537 152.085L187.712 147.91L198.845 149.301L215.545 146.518L222.503 149.301L236.42 153.476L237.812 172.96L230.853 179.918L215.545 186.876L205.803 193.835L193.278 195.226L194.651 182.876L197.453 168.785L196.042 166.176L193.278 157.651L183.537 152.085Z" fill="#DCFFFD"/>
<g filter="url(#filter5_d_206_20)">
<circle cx="392.287" cy="128.426" r="6.95833" fill="#DAFFFF"/>
</g>
<defs>
<filter id="filter0_d_206_20" x="309.178" y="145.518" width="13.1333" height="13.1333" filterUnits="userSpaceOnUse" color-interpolation-filters="sRGB">
<feFlood flood-opacity="0" result="BackgroundImageFix"/>
<feColorMatrix in="SourceAlpha" type="matrix" values="0 0 0 0 0 0 0 0 0 0 0 0 0 0 0 0 0 0 127 0" result="hardAlpha"/>
<feMorphology radius="1" operator="dilate" in="SourceAlpha" result="effect1_dropShadow_206_20"/>
<feOffset/>
<feComposite in2="hardAlpha" operator="out"/>
<feColorMatrix type="matrix" values="0 0 0 0 0.329167 0 0 0 0 0.329167 0 0 0 0 0.329167 0 0 0 1 0"/>
<feBlend mode="normal" in2="BackgroundImageFix" result="effect1_dropShadow_206_20"/>
<feBlend mode="normal" in="SourceGraphic" in2="effect1_dropShadow_206_20" result="shape"/>
</filter>
<filter id="filter1_d_206_20" x="339.795" y="148.301" width="10.3501" height="10.35" filterUnits="userSpaceOnUse" color-interpolation-filters="sRGB">
<feFlood flood-opacity="0" result="BackgroundImageFix"/>
<feColorMatrix in="SourceAlpha" type="matrix" values="0 0 0 0 0 0 0 0 0 0 0 0 0 0 0 0 0 0 127 0" result="hardAlpha"/>
<feMorphology radius="1" operator="dilate" in="SourceAlpha" result="effect1_dropShadow_206_20"/>
<feOffset/>
<feComposite in2="hardAlpha" operator="out"/>
<feColorMatrix type="matrix" values="0 0 0 0 0.329167 0 0 0 0 0.329167 0 0 0 0 0.329167 0 0 0 1 0"/>
<feBlend mode="normal" in2="BackgroundImageFix" result="effect1_dropShadow_206_20"/>
<feBlend mode="normal" in="SourceGraphic" in2="effect1_dropShadow_206_20" result="shape"/>
</filter>
<filter id="filter2_d_206_20" x="342.578" y="131.601" width="10.3501" height="10.35" filterUnits="userSpaceOnUse" color-interpolation-filters="sRGB">
<feFlood flood-opacity="0" result="BackgroundImageFix"/>
<feColorMatrix in="SourceAlpha" type="matrix" values="0 0 0 0 0 0 0 0 0 0 0 0 0 0 0 0 0 0 127 0" result="hardAlpha"/>
<feMorphology radius="1" operator="dilate" in="SourceAlpha" result="effect1_dropShadow_206_20"/>
<feOffset/>
<feComposite in2="hardAlpha" operator="out"/>
<feColorMatrix type="matrix" values="0 0 0 0 0.329167 0 0 0 0 0.329167 0 0 0 0 0.329167 0 0 0 1 0"/>
<feBlend mode="normal" in2="BackgroundImageFix" result="effect1_dropShadow_206_20"/>
<feBlend mode="normal" in="SourceGraphic" in2="effect1_dropShadow_206_20" result="shape"/>
</filter>
<filter id="filter3_d_206_20" x="348.145" y="103.768" width="7.56689" height="7.56667" filterUnits="userSpaceOnUse" color-interpolation-filters="sRGB">
<feFlood flood-opacity="0" result="BackgroundImageFix"/>
<feColorMatrix in="SourceAlpha" type="matrix" values="0 0 0 0 0 0 0 0 0 0 0 0 0 0 0 0 0 0 127 0" result="hardAlpha"/>
<feMorphology radius="1" operator="dilate" in="SourceAlpha" result="effect1_dropShadow_206_20"/>
<feOffset/>
<feComposite in2="hardAlpha" operator="out"/>
<feColorMatrix type="matrix" values="0 0 0 0 0.329167 0 0 0 0 0.329167 0 0 0 0 0.329167 0 0 0 1 0"/>
<feBlend mode="normal" in2="BackgroundImageFix" result="effect1_dropShadow_206_20"/>
<feBlend mode="normal" in="SourceGraphic" in2="effect1_dropShadow_206_20" result="shape"/>
</filter>
<filter id="filter4_d_206_20" x="364.845" y="145.518" width="7.56689" height="7.56667" filterUnits="userSpaceOnUse" color-interpolation-filters="sRGB">
<feFlood flood-opacity="0" result="BackgroundImageFix"/>
<feColorMatrix in="SourceAlpha" type="matrix" values="0 0 0 0 0 0 0 0 0 0 0 0 0 0 0 0 0 0 127 0" result="hardAlpha"/>
<feMorphology radius="1" operator="dilate" in="SourceAlpha" result="effect1_dropShadow_206_20"/>
<feOffset/>
<feComposite in2="hardAlpha" operator="out"/>
<feColorMatrix type="matrix" values="0 0 0 0 0.329167 0 0 0 0 0.329167 0 0 0 0 0.329167 0 0 0 1 0"/>
<feBlend mode="normal" in2="BackgroundImageFix" result="effect1_dropShadow_206_20"/>
<feBlend mode="normal" in="SourceGraphic" in2="effect1_dropShadow_206_20" result="shape"/>
</filter>
<filter id="filter5_d_206_20" x="363.329" y="99.4678" width="57.9165" height="57.9167" filterUnits="userSpaceOnUse" color-interpolation-filters="sRGB">
<feFlood flood-opacity="0" result="BackgroundImageFix"/>
<feColorMatrix in="SourceAlpha" type="matrix" values="0 0 0 0 0 0 0 0 0 0 0 0 0 0 0 0 0 0 127 0" result="hardAlpha"/>
<feMorphology radius="9" operator="dilate" in="SourceAlpha" result="effect1_dropShadow_206_20"/>
<feOffset/>
<feGaussianBlur stdDeviation="6.5"/>
<feComposite in2="hardAlpha" operator="out"/>
<feColorMatrix type="matrix" values="0 0 0 0 0.443333 0 0 0 0 1 0 0 0 0 0.9332 0 0 0 1 0"/>
<feBlend mode="normal" in2="BackgroundImageFix" result="effect1_dropShadow_206_20"/>
<feBlend mode="normal" in="SourceGraphic" in2="effect1_dropShadow_206_20" result="shape"/>
</filter>
</defs>
</svg>
