<svg width="308" height="308" viewBox="0 0 308 308" fill="none" xmlns="http://www.w3.org/2000/svg">
<g filter="url(#filter0_d_1_19)">
<mask id="mask0_1_19" style="mask-type:alpha" maskUnits="userSpaceOnUse" x="9" y="9" width="290" height="290">
<circle cx="154" cy="154" r="145" fill="#D9D9D9"/>
</mask>
<g mask="url(#mask0_1_19)">
<rect x="-18" y="1" width="323" height="307" fill="#FFD27B"/>
<path d="M33.5 122.5C33.5 122.5 12.8333 126.5 3.5 128.5L-3 135.5V182C-3 184 11 246 13.5 252C15.5 256.8 57 293.667 77.5 311.5L255 292C271 278 303.6 249.2 306 246C309 242 329 196.5 329 194.5C329 192.9 313.667 163.833 306 149.5C294.667 151.833 269.5 156.5 269.5 156.5C269.5 156.5 241 167 231.5 167C222 167 205.793 166.54 190 162.5C169.098 157.154 144.4 141.8 140 139C134.5 135.5 117.5 132.276 86.5 124.5C55.5 116.724 33.5 122.5 33.5 122.5Z" fill="#FF6464"/>
<path d="M270.5 149.063C270.5 149.063 291.167 153.063 300.5 155.063L307 162.063V208.563C307 210.563 293 272.563 290.5 278.563C288.5 283.363 247 320.23 226.5 338.063L49 318.563C33 304.563 0.399994 275.763 -2 272.563C-5 268.563 -25 223.063 -25 221.063C-25 219.463 -9.66666 190.397 -2 176.063C9.33334 178.397 34.5 183.063 34.5 183.063C34.5 183.063 63 193.563 72.5 193.563C82 193.563 98.2067 193.103 114 189.063C134.902 183.717 159.6 168.363 164 165.563C169.5 162.063 186.5 158.84 217.5 151.063C248.5 143.287 270.5 149.063 270.5 149.063Z" fill="#BA5151"/>
<path d="M104.387 77L106.613 77.5517L113.29 131.621L117 141H94L97.7097 132.172L104.387 77Z" fill="#2B2B2B"/>
<path d="M73.3871 86L75.6129 86.5517L82.2903 140.621L86 150H63L66.7097 141.172L73.3871 86Z" fill="#2B2B2B"/>
<path d="M50.6859 85.0715C50.591 84.014 49.5342 83.3219 48.5269 83.6577V83.6577C47.9037 83.8654 47.4638 84.424 47.4079 85.0786L44.4846 119.323C44.1995 122.663 41.6867 125.386 38.3799 125.937V125.937C36.2377 126.294 34.0473 125.683 32.3984 124.27L31.3256 123.35C29.1996 121.528 27.9014 118.923 27.7268 116.128L27.2308 108.193C27.0785 105.756 27.4234 103.315 28.2444 101.016L34.5 83.5L37.4562 74.2618C38.1459 72.1066 39.2357 70.1008 40.6686 68.3494L44.3099 63.899C46.329 61.4312 49.3492 60 52.5378 60V60C56.2413 60 59.6778 61.9273 61.609 65.0874L62.9407 67.2666C63.6438 68.4171 64.1905 69.6561 64.5664 70.9509L68.5 84.5L71.1589 99.1238C71.3857 100.371 71.48 101.639 71.4404 102.906L71.0467 115.504C71.0157 116.496 70.8406 117.478 70.5268 118.42L70.3982 118.805C69.2373 122.288 66.1882 124.802 62.5477 125.276L60.3344 125.565C58.2742 125.834 56.229 124.972 54.9824 123.31V123.31C54.3402 122.454 53.9493 121.435 53.8536 120.369L50.6859 85.0715Z" fill="#994D43"/>
<path d="M86.6859 84.0715C86.591 83.014 85.5342 82.3219 84.5269 82.6577V82.6577C83.9037 82.8654 83.4638 83.424 83.4079 84.0786L80.4846 118.323C80.1995 121.663 77.6867 124.386 74.3799 124.937V124.937C72.2377 125.294 70.0473 124.683 68.3984 123.27L67.3256 122.35C65.1996 120.528 63.9014 117.923 63.7268 115.128L63.2308 107.193C63.0785 104.756 63.4234 102.315 64.2444 100.016L70.5 82.5L73.4562 73.2618C74.1459 71.1066 75.2357 69.1008 76.6686 67.3494L80.3099 62.899C82.329 60.4312 85.3492 59 88.5378 59V59C92.2413 59 95.6778 60.9273 97.609 64.0874L98.9407 66.2666C99.6438 67.4171 100.19 68.6561 100.566 69.9509L104.5 83.5L107.159 98.1238C107.386 99.3711 107.48 100.639 107.44 101.906L107.047 114.504C107.016 115.496 106.841 116.478 106.527 117.42L106.398 117.805C105.237 121.288 102.188 123.802 98.5477 124.276L96.3344 124.565C94.2742 124.834 92.229 123.972 90.9824 122.31V122.31C90.3402 121.454 89.9493 120.435 89.8536 119.369L86.6859 84.0715Z" fill="#994D43"/>
<path d="M103.686 89.0715C103.591 88.014 102.534 87.3219 101.527 87.6577V87.6577C100.904 87.8654 100.464 88.424 100.408 89.0786L97.4846 123.323C97.1995 126.663 94.6867 129.386 91.3799 129.937V129.937C89.2377 130.294 87.0473 129.683 85.3984 128.27L84.3256 127.35C82.1996 125.528 80.9014 122.923 80.7268 120.128L80.2308 112.193C80.0785 109.756 80.4234 107.315 81.2444 105.016L87.5 87.5L90.4562 78.2618C91.1459 76.1066 92.2357 74.1008 93.6686 72.3494L97.3099 67.899C99.329 65.4312 102.349 64 105.538 64V64C109.241 64 112.678 65.9273 114.609 69.0874L115.941 71.2666C116.644 72.4171 117.19 73.6561 117.566 74.9509L121.5 88.5L124.159 103.124C124.386 104.371 124.48 105.639 124.44 106.906L124.047 119.504C124.016 120.496 123.841 121.478 123.527 122.42L123.398 122.805C122.237 126.288 119.188 128.802 115.548 129.276L113.334 129.565C111.274 129.834 109.229 128.972 107.982 127.31V127.31C107.34 126.454 106.949 125.435 106.854 124.369L103.686 89.0715Z" fill="#89443B"/>
<path d="M64.3871 76L66.6129 76.5517L73.2903 130.621L77 140H54L57.7097 131.172L64.3871 76Z" fill="#2B2B2B"/>
<path d="M67.1859 83.0715C67.091 82.014 66.0342 81.3219 65.0269 81.6577V81.6577C64.4037 81.8654 63.9638 82.424 63.9079 83.0786L60.9846 117.323C60.6995 120.663 58.1867 123.386 54.8799 123.937V123.937C52.7377 124.294 50.5473 123.683 48.8984 122.27L47.8256 121.35C45.6996 119.528 44.4014 116.923 44.2268 114.128L43.7308 106.193C43.5785 103.756 43.9234 101.315 44.7444 99.0157L51 81.5L53.9562 72.2618C54.6459 70.1066 55.7357 68.1008 57.1686 66.3494L60.8099 61.899C62.829 59.4312 65.8492 58 69.0378 58V58C72.7413 58 76.1778 59.9273 78.109 63.0874L79.4407 65.2666C80.1438 66.4171 80.6905 67.6561 81.0664 68.9509L85 82.5L87.6589 97.1238C87.8857 98.3711 87.98 99.6389 87.9404 100.906L87.5467 113.504C87.5157 114.496 87.3406 115.478 87.0268 116.42L86.8982 116.805C85.7373 120.288 82.6882 122.802 79.0477 123.276L76.8344 123.565C74.7742 123.834 72.729 122.972 71.4824 121.31V121.31C70.8402 120.454 70.4493 119.435 70.3536 118.369L67.1859 83.0715Z" fill="#834138"/>
<path d="M33.3871 85L35.6129 85.5517L42.2903 139.621L46 149H23L26.7097 140.172L33.3871 85Z" fill="#2B2B2B"/>
<path d="M36.1859 92.0715C36.091 91.014 35.0342 90.3219 34.0269 90.6577V90.6577C33.4037 90.8654 32.9638 91.424 32.9079 92.0786L29.9846 126.323C29.6995 129.663 27.1867 132.386 23.8799 132.937V132.937C21.7377 133.294 19.5473 132.683 17.8984 131.27L16.8256 130.35C14.6996 128.528 13.4014 125.923 13.2268 123.128L12.7308 115.193C12.5785 112.756 12.9234 110.315 13.7444 108.016L20 90.5L22.9562 81.2618C23.6459 79.1066 24.7357 77.1008 26.1686 75.3494L29.8099 70.899C31.829 68.4312 34.8492 67 38.0378 67V67C41.7413 67 45.1778 68.9273 47.109 72.0874L48.4407 74.2666C49.1438 75.4171 49.6905 76.6561 50.0664 77.9509L54 91.5L56.6589 106.124C56.8857 107.371 56.98 108.639 56.9404 109.906L56.5467 122.504C56.5157 123.496 56.3406 124.478 56.0268 125.42L55.8982 125.805C54.7373 129.288 51.6882 131.802 48.0477 132.276L45.8344 132.565C43.7742 132.834 41.729 131.972 40.4824 130.31V130.31C39.8402 129.454 39.4493 128.435 39.3536 127.369L36.1859 92.0715Z" fill="#834138"/>
<path d="M88.8871 82L91.1129 82.5517L97.7903 136.621L101.5 146H78.5L82.2097 137.172L88.8871 82Z" fill="#2B2B2B"/>
<path d="M91.6859 89.0715C91.591 88.014 90.5342 87.3219 89.5269 87.6577V87.6577C88.9037 87.8654 88.4638 88.424 88.4079 89.0786L85.4846 123.323C85.1995 126.663 82.6867 129.386 79.3799 129.937V129.937C77.2377 130.294 75.0473 129.683 73.3984 128.27L72.3256 127.35C70.1996 125.528 68.9014 122.923 68.7268 120.128L68.2308 112.193C68.0785 109.756 68.4234 107.315 69.2444 105.016L75.5 87.5L78.4562 78.2618C79.1459 76.1066 80.2357 74.1008 81.6686 72.3494L85.3099 67.899C87.329 65.4312 90.3492 64 93.5378 64V64C97.2413 64 100.678 65.9273 102.609 69.0874L103.941 71.2666C104.644 72.4171 105.19 73.6561 105.566 74.9509L109.5 88.5L112.159 103.124C112.386 104.371 112.48 105.639 112.44 106.906L112.047 119.504C112.016 120.496 111.841 121.478 111.527 122.42L111.398 122.805C110.237 126.288 107.188 128.802 103.548 129.276L101.334 129.565C99.2742 129.834 97.229 128.972 95.9824 127.31V127.31C95.3402 126.454 94.9493 125.435 94.8536 124.369L91.6859 89.0715Z" fill="#6B3730"/>
<path d="M57.8871 91L60.1129 91.5517L66.7903 145.621L70.5 155H47.5L51.2097 146.172L57.8871 91Z" fill="#2B2B2B"/>
<path d="M60.6859 98.0715C60.591 97.014 59.5342 96.3219 58.5269 96.6577V96.6577C57.9037 96.8654 57.4638 97.424 57.4079 98.0786L54.4846 132.323C54.1995 135.663 51.6867 138.386 48.3799 138.937V138.937C46.2377 139.294 44.0473 138.683 42.3984 137.27L41.3256 136.35C39.1996 134.528 37.9014 131.923 37.7268 129.128L37.2308 121.193C37.0785 118.756 37.4234 116.315 38.2444 114.016L44.5 96.5L47.4562 87.2618C48.1459 85.1066 49.2357 83.1008 50.6686 81.3494L54.3099 76.899C56.329 74.4312 59.3492 73 62.5378 73V73C66.2413 73 69.6778 74.9273 71.609 78.0874L72.9407 80.2666C73.6438 81.4171 74.1905 82.6561 74.5664 83.9509L78.5 97.5L81.1589 112.124C81.3857 113.371 81.48 114.639 81.4404 115.906L81.0467 128.504C81.0157 129.496 80.8406 130.478 80.5268 131.42L80.3982 131.805C79.2373 135.288 76.1882 137.802 72.5477 138.276L70.3344 138.565C68.2742 138.834 66.229 137.972 64.9824 136.31V136.31C64.3402 135.454 63.9493 134.435 63.8536 133.369L60.6859 98.0715Z" fill="#6B3730"/>
<path d="M51.6129 91L49.3871 91.5517L42.7097 145.621L39 155H62L58.2903 146.172L51.6129 91Z" fill="#1A1A1A"/>
<path d="M48.8141 98.0715C48.909 97.014 49.9658 96.3219 50.9731 96.6577V96.6577C51.5963 96.8654 52.0362 97.424 52.0921 98.0786L55.0154 132.323C55.3005 135.663 57.8133 138.386 61.1201 138.937V138.937C63.2623 139.294 65.4527 138.683 67.1016 137.27L68.1744 136.35C70.3004 134.528 71.5986 131.923 71.7732 129.128L72.2692 121.193C72.4215 118.756 72.0766 116.315 71.2556 114.016L65 96.5L62.0438 87.2618C61.3541 85.1066 60.2643 83.1008 58.8314 81.3494L55.1901 76.899C53.171 74.4312 50.1508 73 46.9622 73V73C43.2587 73 39.8222 74.9273 37.891 78.0874L36.5593 80.2666C35.8562 81.4171 35.3095 82.6561 34.9336 83.9509L31 97.5L28.3411 112.124C28.1143 113.371 28.02 114.639 28.0596 115.906L28.4533 128.504C28.4843 129.496 28.6594 130.478 28.9732 131.42L29.1018 131.805C30.2627 135.288 33.3118 137.802 36.9523 138.276L39.1656 138.565C41.2258 138.834 43.271 137.972 44.5176 136.31V136.31C45.1598 135.454 45.5507 134.435 45.6464 133.369L48.8141 98.0715Z" fill="#4B2722"/>
<path d="M20.6129 100L18.3871 100.552L11.7097 154.621L8 164H31L27.2903 155.172L20.6129 100Z" fill="#1A1A1A"/>
<path d="M17.8141 107.071C17.909 106.014 18.9658 105.322 19.9731 105.658V105.658C20.5963 105.865 21.0362 106.424 21.0921 107.079L24.0154 141.323C24.3005 144.663 26.8133 147.386 30.1201 147.937V147.937C32.2623 148.294 34.4527 147.683 36.1016 146.27L37.1744 145.35C39.3004 143.528 40.5986 140.923 40.7732 138.128L41.2692 130.193C41.4215 127.756 41.0766 125.315 40.2556 123.016L34 105.5L31.0438 96.2618C30.3541 94.1066 29.2643 92.1008 27.8314 90.3494L24.1901 85.899C22.171 83.4312 19.1508 82 15.9622 82V82C12.2587 82 8.82218 83.9273 6.89101 87.0874L5.55932 89.2666C4.85624 90.4171 4.30952 91.6561 3.9336 92.9509L0 106.5L-2.65888 121.124C-2.88566 122.371 -2.98004 123.639 -2.94044 124.906L-2.54674 137.504C-2.51575 138.496 -2.34058 139.478 -2.02675 140.42L-1.89823 140.805C-0.737255 144.288 2.31182 146.802 5.95232 147.276L8.16557 147.565C10.2258 147.834 12.271 146.972 13.5176 145.31V145.31C14.1598 144.454 14.5507 143.435 14.6464 142.369L17.8141 107.071Z" fill="#45231F"/>
<rect x="185" y="117" width="8" height="9" rx="4" fill="#3D2A2A"/>
<path d="M187 141L185.5 132L176.5 129.5L167.5 124.5L166 122L176.5 125.5L184 127L189.5 125H196.5L199.5 134L200.5 145L200 148.5L197.5 139L194.5 130.5L198.5 172.5L196.5 176L190.5 150L183.5 173L179.5 176.5L187 141Z" fill="#493333"/>
<rect x="209.378" y="143" width="4.36975" height="4.91597" rx="2.18487" fill="#3D2A2A"/>
<path d="M210.471 156.109L209.651 151.193L204.735 152.5L199.819 147.097L199 145.731L204.735 150L208.832 148.462L211.836 147.37H215.66L217.298 152.286L217.845 158.294L217.571 160.206L216.206 155.017L214.567 150.374L216.752 173.315L215.66 175.227L212.382 161.025L208.559 173.588L206.374 175.5L210.471 156.109Z" fill="#493333"/>
</g>
</g>
<defs>
<filter id="filter0_d_1_19" x="0" y="0" width="308" height="308" filterUnits="userSpaceOnUse" color-interpolation-filters="sRGB">
<feFlood flood-opacity="0" result="BackgroundImageFix"/>
<feColorMatrix in="SourceAlpha" type="matrix" values="0 0 0 0 0 0 0 0 0 0 0 0 0 0 0 0 0 0 127 0" result="hardAlpha"/>
<feOffset/>
<feGaussianBlur stdDeviation="4.5"/>
<feComposite in2="hardAlpha" operator="out"/>
<feColorMatrix type="matrix" values="0 0 0 0 0 0 0 0 0 0 0 0 0 0 0 0 0 0 0.25 0"/>
<feBlend mode="normal" in2="BackgroundImageFix" result="effect1_dropShadow_1_19"/>
<feBlend mode="normal" in="SourceGraphic" in2="effect1_dropShadow_1_19" result="shape"/>
</filter>
</defs>
</svg>
