<svg width="206" height="233" viewBox="0 0 206 233" fill="none" xmlns="http://www.w3.org/2000/svg">
<g filter="url(#filter0_d_1001_14)">
<g opacity="0.06" filter="url(#filter1_d_1001_14)">
<circle cx="168" cy="146" r="34" fill="#494949"/>
<circle cx="168" cy="146" r="31" stroke="white" stroke-width="6"/>
</g>
<g opacity="0.28" filter="url(#filter2_d_1001_14)">
<circle cx="168" cy="164" r="34" fill="#494949"/>
<circle cx="168" cy="164" r="31" stroke="white" stroke-width="6"/>
</g>
<g filter="url(#filter3_d_1001_14)">
<circle cx="168" cy="180" r="34" fill="#494949"/>
<circle cx="168" cy="180" r="31" stroke="white" stroke-width="6"/>
</g>
<line x1="140" y1="76" x2="140" y2="148" stroke="#494949" stroke-width="4" stroke-linecap="round"/>
<line x1="168" y1="59" x2="168" y2="131" stroke="#494949" stroke-width="4" stroke-linecap="round"/>
<line x1="191" y1="65" x2="191" y2="137" stroke="#494949" stroke-width="4" stroke-linecap="round"/>
<line x1="51.4969" y1="10.9034" x2="53.4969" y2="41.9034" stroke="#494949" stroke-width="3"/>
<line x1="53.4029" y1="41.4692" x2="67.4029" y2="78.4692" stroke="#494949" stroke-width="3"/>
<line x1="67.1493" y1="78.0361" x2="93.1493" y2="109.036" stroke="#494949" stroke-width="3"/>
<line x1="93.448" y1="109.609" x2="103.448" y2="146.609" stroke="#494949" stroke-width="3"/>
<circle cx="50.5" cy="10.5" r="9" fill="#494949" stroke="white" stroke-width="3"/>
<circle cx="52.5" cy="41.5" r="9" fill="#494949" stroke="white" stroke-width="3"/>
<circle cx="66.5" cy="78.5" r="9" fill="#494949" stroke="white" stroke-width="3"/>
<circle cx="92.5" cy="109.5" r="9" fill="#494949" stroke="white" stroke-width="3"/>
<circle cx="102.5" cy="146.5" r="9" fill="#494949" stroke="white" stroke-width="3"/>
<line y1="-1.5" x2="31.0644" y2="-1.5" transform="matrix(-0.0643823 0.997925 0.997925 0.0643823 67 79)" stroke="#494949" stroke-width="3"/>
<line y1="-1.5" x2="39.5601" y2="-1.5" transform="matrix(-0.353892 0.935286 0.935286 0.353892 65 110)" stroke="#494949" stroke-width="3"/>
<line y1="-1.5" x2="40.4599" y2="-1.5" transform="matrix(-0.642612 0.766192 0.766192 0.642612 51 147)" stroke="#494949" stroke-width="3"/>
<line y1="-1.5" x2="38.3275" y2="-1.5" transform="matrix(-0.260909 0.965363 0.965363 0.260909 25 178)" stroke="#494949" stroke-width="3"/>
<circle cx="10.5" cy="10.5" r="9" transform="matrix(-1 0 0 1 77 68)" fill="#494949" stroke="white" stroke-width="3"/>
<circle cx="10.5" cy="10.5" r="9" transform="matrix(-1 0 0 1 75 99)" fill="#494949" stroke="white" stroke-width="3"/>
<circle cx="10.5" cy="10.5" r="9" transform="matrix(-1 0 0 1 61 136)" fill="#494949" stroke="white" stroke-width="3"/>
<circle cx="10.5" cy="10.5" r="9" transform="matrix(-1 0 0 1 35 167)" fill="#494949" stroke="white" stroke-width="3"/>
<circle cx="10.5" cy="10.5" r="9" transform="matrix(-1 0 0 1 25 204)" fill="#494949" stroke="white" stroke-width="3"/>
</g>
<defs>
<filter id="filter0_d_1001_14" x="0" y="0" width="206" height="233" filterUnits="userSpaceOnUse" color-interpolation-filters="sRGB">
<feFlood flood-opacity="0" result="BackgroundImageFix"/>
<feColorMatrix in="SourceAlpha" type="matrix" values="0 0 0 0 0 0 0 0 0 0 0 0 0 0 0 0 0 0 127 0" result="hardAlpha"/>
<feOffset dy="4"/>
<feGaussianBlur stdDeviation="2"/>
<feComposite in2="hardAlpha" operator="out"/>
<feColorMatrix type="matrix" values="0 0 0 0 0 0 0 0 0 0 0 0 0 0 0 0 0 0 0.25 0"/>
<feBlend mode="normal" in2="BackgroundImageFix" result="effect1_dropShadow_1001_14"/>
<feBlend mode="normal" in="SourceGraphic" in2="effect1_dropShadow_1001_14" result="shape"/>
</filter>
<filter id="filter1_d_1001_14" x="130" y="112" width="76" height="76" filterUnits="userSpaceOnUse" color-interpolation-filters="sRGB">
<feFlood flood-opacity="0" result="BackgroundImageFix"/>
<feColorMatrix in="SourceAlpha" type="matrix" values="0 0 0 0 0 0 0 0 0 0 0 0 0 0 0 0 0 0 127 0" result="hardAlpha"/>
<feOffset dy="4"/>
<feGaussianBlur stdDeviation="2"/>
<feComposite in2="hardAlpha" operator="out"/>
<feColorMatrix type="matrix" values="0 0 0 0 0 0 0 0 0 0 0 0 0 0 0 0 0 0 0.25 0"/>
<feBlend mode="normal" in2="BackgroundImageFix" result="effect1_dropShadow_1001_14"/>
<feBlend mode="normal" in="SourceGraphic" in2="effect1_dropShadow_1001_14" result="shape"/>
</filter>
<filter id="filter2_d_1001_14" x="130" y="130" width="76" height="76" filterUnits="userSpaceOnUse" color-interpolation-filters="sRGB">
<feFlood flood-opacity="0" result="BackgroundImageFix"/>
<feColorMatrix in="SourceAlpha" type="matrix" values="0 0 0 0 0 0 0 0 0 0 0 0 0 0 0 0 0 0 127 0" result="hardAlpha"/>
<feOffset dy="4"/>
<feGaussianBlur stdDeviation="2"/>
<feComposite in2="hardAlpha" operator="out"/>
<feColorMatrix type="matrix" values="0 0 0 0 0 0 0 0 0 0 0 0 0 0 0 0 0 0 0.25 0"/>
<feBlend mode="normal" in2="BackgroundImageFix" result="effect1_dropShadow_1001_14"/>
<feBlend mode="normal" in="SourceGraphic" in2="effect1_dropShadow_1001_14" result="shape"/>
</filter>
<filter id="filter3_d_1001_14" x="130" y="146" width="76" height="76" filterUnits="userSpaceOnUse" color-interpolation-filters="sRGB">
<feFlood flood-opacity="0" result="BackgroundImageFix"/>
<feColorMatrix in="SourceAlpha" type="matrix" values="0 0 0 0 0 0 0 0 0 0 0 0 0 0 0 0 0 0 127 0" result="hardAlpha"/>
<feOffset dy="4"/>
<feGaussianBlur stdDeviation="2"/>
<feComposite in2="hardAlpha" operator="out"/>
<feColorMatrix type="matrix" values="0 0 0 0 0 0 0 0 0 0 0 0 0 0 0 0 0 0 0.25 0"/>
<feBlend mode="normal" in2="BackgroundImageFix" result="effect1_dropShadow_1001_14"/>
<feBlend mode="normal" in="SourceGraphic" in2="effect1_dropShadow_1001_14" result="shape"/>
</filter>
</defs>
</svg>
