<svg width="466" height="1038" viewBox="0 0 466 1038" fill="none" xmlns="http://www.w3.org/2000/svg">
<g filter="url(#filter0_d_204_2)">
<path d="M83 182C83 103.023 147.023 39 226 39C304.977 39 369 103.023 369 182V310C369 318.284 362.284 325 354 325H97C89.268 325 83 318.732 83 311V182Z" fill="#F4F4F4"/>
<rect x="83" y="275" width="286" height="28" fill="#A7A7A7"/>
<path d="M95 164.5C95 117.832 132.832 80 179.5 80H273.5C320.168 80 358 117.832 358 164.5V237C358 243.627 352.627 249 346 249H109C101.268 249 95 242.732 95 235V164.5Z" fill="#676767"/>
<rect x="203" y="377" width="46" height="46" rx="23" fill="#C8FFFF"/>
<path d="M174 413H278L427 999H39L174 413Z" fill="url(#paint0_linear_204_2)"/>
<path d="M117.031 350.215C111.829 338.322 120.542 325 133.522 325H316.87C329.749 325 338.46 338.131 333.455 349.997L299.82 429.722C295.013 441.118 280.407 444.382 271.206 436.115L238.03 406.308C231.188 400.161 220.812 400.161 213.97 406.308L180.534 436.348C171.407 444.548 156.931 441.414 152.013 430.173L117.031 350.215Z" fill="#F4F4F4"/>
<path d="M130 134C130 127.373 135.373 122 142 122H161.5C178.897 122 193 136.103 193 153.5V168C193 177.389 185.389 185 176 185H161.5C144.103 185 130 170.897 130 153.5V134Z" fill="#ABFFF5"/>
<path d="M329 134C329 127.373 323.627 122 317 122H297.5C280.103 122 266 136.103 266 153.5V168C266 177.389 273.611 185 283 185H297.5C314.897 185 329 170.897 329 153.5V134Z" fill="#ABFFF5"/>
<rect x="219" y="706" width="16" height="253" rx="8" fill="#73A06F"/>
<path d="M130.733 635L197.491 661.972C217.973 670.247 227.869 693.561 219.594 714.043L218.845 715.898L152.087 688.926C131.604 680.65 121.709 657.337 129.984 636.854L130.733 635Z" fill="#A9FFA2"/>
<path d="M320.844 667L254.087 693.972C233.604 702.247 223.709 725.561 231.984 746.043L232.733 747.898L299.491 720.926C319.973 712.65 329.869 689.337 321.594 668.854L320.844 667Z" fill="#D5967B"/>
<path d="M128.733 702L195.491 728.972C215.973 737.247 225.869 760.561 217.594 781.043L216.845 782.898L150.087 755.926C129.604 747.65 119.709 724.337 127.984 703.854L128.733 702Z" fill="#A9FFA2"/>
<path d="M130.733 762L197.491 788.972C217.973 797.247 227.869 820.561 219.594 841.043L218.845 842.898L152.087 815.926C131.604 807.65 121.709 784.337 129.984 763.854L130.733 762Z" fill="#A9FFA2"/>
<path d="M320.844 801L254.087 827.972C233.604 836.247 223.709 859.561 231.984 880.043L232.733 881.898L299.491 854.926C319.973 846.65 329.869 823.337 321.594 802.854L320.844 801Z" fill="#A9FFA2"/>
<path d="M320.844 741L254.087 767.972C233.604 776.247 223.709 799.561 231.984 820.043L232.733 821.898L299.491 794.926C319.973 786.65 329.869 763.337 321.594 742.854L320.844 741Z" fill="#A9FFA2"/>
<path d="M144 995C144 971.804 162.804 953 186 953H274C297.196 953 316 971.804 316 995H144Z" fill="#7E3E3E"/>
</g>
<defs>
<filter id="filter0_d_204_2" x="0" y="0" width="466" height="1038" filterUnits="userSpaceOnUse" color-interpolation-filters="sRGB">
<feFlood flood-opacity="0" result="BackgroundImageFix"/>
<feColorMatrix in="SourceAlpha" type="matrix" values="0 0 0 0 0 0 0 0 0 0 0 0 0 0 0 0 0 0 127 0" result="hardAlpha"/>
<feOffset/>
<feGaussianBlur stdDeviation="19.5"/>
<feComposite in2="hardAlpha" operator="out"/>
<feColorMatrix type="matrix" values="0 0 0 0 0 0 0 0 0 0 0 0 0 0 0 0 0 0 0.17 0"/>
<feBlend mode="normal" in2="BackgroundImageFix" result="effect1_dropShadow_204_2"/>
<feBlend mode="normal" in="SourceGraphic" in2="effect1_dropShadow_204_2" result="shape"/>
</filter>
<linearGradient id="paint0_linear_204_2" x1="233" y1="413" x2="233" y2="999" gradientUnits="userSpaceOnUse">
<stop stop-color="#E2FFFD"/>
<stop offset="0.810417" stop-color="#E2FFFD" stop-opacity="0"/>
</linearGradient>
</defs>
</svg>
